<svg xmlns="http://www.w3.org/2000/svg" xmlns:xlink="http://www.w3.org/1999/xlink" viewBox="350 750 254.79 434.85">
  <defs>
    <style>
      .cls-1 {
        clip-path: url(#clip-MENU_PORTRAIT);
      }

      .cls-2 {
        fill: gray;
      }

      .cls-15, .cls-3 {
        fill: none;
      }

      .cls-10, .cls-12, .cls-14, .cls-16, .cls-4, .cls-6, .cls-8 {
        fill: #fff;
      }

      .cls-4 {
        font-size: 5px;
      }

      .cls-10, .cls-4 {
        font-family: HelveticaNeueLTStd-Roman, Helvetica Neue LT Std;
      }

      .cls-5, .cls-8, .cls-9 {
        opacity: 0.9;
      }

      .cls-7, .cls-9 {
        fill: #b3b3b3;
      }

      .cls-10 {
        font-size: 6px;
      }

      .cls-11 {
        fill: #e6e6e6;
      }

      .cls-12 {
        stroke: #95989a;
        stroke-width: 0.5px;
      }

      .cls-13 {
        font-size: 11px;
      }

      .cls-13, .cls-14, .cls-16 {
        font-family: HelveticaNeueLTStd-Th, Helvetica Neue LT Std;
      }

      .cls-14 {
        font-size: 7px;
      }

      .cls-15 {
        stroke: #fff;
      }

      .cls-16 {
        font-size: 20px;
      }

      .cls-17 {
        stroke: none;
      }
    </style>
    <clipPath id="clip-MENU_PORTRAIT">
      <rect x="350" y="750" width="254.79" height="434.85"/>
    </clipPath>
  </defs>
  <g id="MENU_PORTRAIT" class="cls-1">
    <rect class="cls-6" x="350" y="750" width="254.79" height="434.85"/>
    <path id="rectangle" class="cls-2" d="M0,0H254.79V10.192H0Z" transform="translate(350 750)"/>
    <g id="Group_354" data-name="Group 354" transform="translate(343 750)">
      <rect id="sysbar" class="cls-3" width="50.109" height="10.192" transform="translate(195.681)"/>
      <g id="Group_353" data-name="Group 353">
        <g id="Group_352" data-name="Group 352" transform="translate(195.681 0.301)">
          <rect id="Rectangle_156" data-name="Rectangle 156" class="cls-3" width="20.986" height="5.794" transform="translate(31.527 2.123)"/>
          <text id="_12:47_PM" data-name="12:47 PM" class="cls-4" transform="translate(52.424 6.699)"><tspan x="-21.495" y="0">12:47 PM</tspan></text>
        </g>
        <g id="sysbar_wifi" data-name="sysbar wifi" transform="translate(209.132 1.699)">
          <g id="Group_285" data-name="Group 285" class="cls-5" transform="translate(0 0.425)">
            <path id="Path_78" data-name="Path 78" class="cls-6" d="M3.737,6.945,7.474,2.316A5.962,5.962,0,0,0,0,2.316L3.737,6.945Z" transform="translate(0 -1)"/>
            <path id="Path_89" data-name="Path 89" class="cls-7" d="M1.614,3.568l1.614-2A2.576,2.576,0,0,0,0,1.569l1.614,2Z" transform="translate(2.123 2.377)"/>
          </g>
          <rect id="Rectangle_157" data-name="Rectangle 157" class="cls-3" width="6.794" height="6.794" transform="translate(0.34)"/>
        </g>
        <g id="sysbar_battery" data-name="sysbar battery" transform="translate(218.612 1.699)">
          <rect id="Rectangle_159" data-name="Rectangle 159" class="cls-3" width="6.794" height="6.794" transform="translate(0)"/>
          <path id="Path_80" data-name="Path 80" class="cls-8" d="M45.348,1.425V1H44.074v.425H42.8v5.52h3.822V1.425Z" transform="translate(-41.101 -0.575)"/>
          <path id="Path_90" data-name="Path 90" class="cls-9" d="M42.8,1.333V5.5h3.822V1.333Z" transform="translate(-41.101 0.868)"/>
        </g>
      </g>
    </g>
    <g id="Group_355" data-name="Group 355" transform="translate(330.681 750.301)">
      <rect id="Rectangle_156-2" data-name="Rectangle 156" class="cls-3" width="20.986" height="5.794" transform="translate(31.527 2.123)"/>
      <text id="MENU" class="cls-10" transform="translate(31.424 6.699)"><tspan x="0" y="0">MENU</tspan></text>
    </g>
    <rect id="Rectangle_189" data-name="Rectangle 189" class="cls-7" width="85.955" height="85.955" transform="translate(361.742 771)"/>
    <rect id="Rectangle_190" data-name="Rectangle 190" class="cls-11" width="85.955" height="85.955" transform="translate(459.742 771)"/>
    <rect id="Rectangle_189-2" data-name="Rectangle 189" class="cls-11" width="85.955" height="85.955" transform="translate(361.742 870)"/>
    <rect id="Rectangle_190-2" data-name="Rectangle 190" class="cls-11" width="85.955" height="85.955" transform="translate(459.742 870)"/>
    <rect id="Rectangle_189-3" data-name="Rectangle 189" class="cls-11" width="85.955" height="85.955" transform="translate(361.742 969)"/>
    <rect id="Rectangle_190-3" data-name="Rectangle 190" class="cls-11" width="85.955" height="85.955" transform="translate(459.742 969)"/>
    <rect id="Rectangle_189-4" data-name="Rectangle 189" class="cls-11" width="85.955" height="85.955" transform="translate(361.742 1068)"/>
    <rect id="Rectangle_190-4" data-name="Rectangle 190" class="cls-11" width="85.955" height="85.955" transform="translate(459.742 1068)"/>
    <g id="Group_358" data-name="Group 358" transform="translate(579.119 954) rotate(90)">
      <g id="Ellipse_1" data-name="Ellipse 1" class="cls-12" transform="translate(6.794)">
        <circle class="cls-17" cx="1.699" cy="1.699" r="1.699"/>
        <circle class="cls-3" cx="1.699" cy="1.699" r="1.449"/>
      </g>
      <g id="Ellipse_2" data-name="Ellipse 2" class="cls-12" transform="translate(13.589)">
        <circle class="cls-17" cx="1.699" cy="1.699" r="1.699"/>
        <circle class="cls-3" cx="1.699" cy="1.699" r="1.449"/>
      </g>
      <circle id="Ellipse_3" data-name="Ellipse 3" class="cls-7" cx="1.699" cy="1.699" r="1.699"/>
    </g>
    <g id="Group_363" data-name="Group 363" transform="translate(374 1111)">
      <rect id="Rectangle_188" data-name="Rectangle 188" class="cls-11" width="31.143" height="31.143" transform="translate(217.143 12) rotate(90)"/>
      <text id="select_all" data-name="select
all" class="cls-13" transform="translate(202 27)"><tspan x="-13.557" y="0">select</tspan><tspan x="-4.598" y="10">all</tspan></text>
    </g>
    <g id="Group_400" data-name="Group 400" transform="translate(-626 -56)">
      <path id="rectangle-2" data-name="rectangle" class="cls-2" d="M0,0H254.738V18.43H0Z" transform="translate(976 1222)"/>
      <g id="Group_397" data-name="Group 397" transform="translate(0 -20)">
        <g id="Group_395" data-name="Group 395">
          <text id="home" class="cls-14" transform="translate(1163 1253)"><tspan x="0" y="0">home</tspan></text>
          <g id="Group_393" data-name="Group 393" transform="translate(61 -33)">
            <rect id="Rectangle_193" data-name="Rectangle 193" class="cls-3" width="8.493" height="8.493" transform="translate(1092 1280)"/>
            <path id="Path_99" data-name="Path 99" class="cls-15" d="M1154.277,1214.446l-3.346-3.346,3.346-3.347" transform="translate(-56.419 73.147)"/>
          </g>
        </g>
        <g id="Group_396" data-name="Group 396">
          <text id="options" class="cls-14" transform="translate(1043 1253)"><tspan x="-21.399" y="0">options</tspan></text>
          <g id="Group_392" data-name="Group 392" transform="translate(-37 -33)">
            <rect id="Rectangle_195" data-name="Rectangle 195" class="cls-3" width="8.493" height="8.493" transform="translate(1082 1280)"/>
            <g id="Group_391" data-name="Group 391" transform="translate(36.261 72.859)">
              <path id="Path_95" data-name="Path 95" class="cls-15" d="M1051.985,1213.834H1046" transform="translate(0.993 -0.193)"/>
              <path id="Path_96" data-name="Path 96" class="cls-15" d="M1051.985,1213.834H1046" transform="translate(0.993 -2.447)"/>
              <path id="Path_97" data-name="Path 97" class="cls-15" d="M1051.985,1213.834H1046" transform="translate(0.993 -4.701)"/>
            </g>
          </g>
        </g>
        <g id="Group_394" data-name="Group 394" transform="translate(-3 -33)">
          <rect id="Rectangle_194" data-name="Rectangle 194" class="cls-3" width="8.493" height="8.493" transform="translate(1102 1280)"/>
          <g id="Group_390" data-name="Group 390" transform="translate(3.28 48.1)">
            <path id="Path_98" data-name="Path 98" class="cls-15" d="M2.878,7,0,3.5,2.878,0" transform="translate(1106.471 1233.7) rotate(90)"/>
            <path id="Path_95-2" data-name="Path 95" class="cls-15" d="M0,4.058H3.3V0H0" transform="translate(1105.058 1235.302) rotate(90)"/>
          </g>
        </g>
      </g>
    </g>
    <text id="LIGHT" class="cls-16" transform="translate(404 821)"><tspan x="-26" y="0">LIGHT</tspan></text>
  </g>
</svg>
